<?xml version="1.0" standalone="no"?>
<!DOCTYPE svg PUBLIC "-//W3C//DTD SVG 20010904//EN"
 "http://www.w3.org/TR/2001/REC-SVG-20010904/DTD/svg10.dtd">
<svg version="1.0" xmlns="http://www.w3.org/2000/svg"
 width="1024.000000pt" height="1024.000000pt" viewBox="0 0 1024.000000 1024.000000"
 preserveAspectRatio="xMidYMid meet">

<g transform="translate(0.000000,1024.000000) scale(0.100000,-0.100000)"
fill="#000000" stroke="none">
<path d="M0 5120 l0 -5120 5120 0 5120 0 0 5120 0 5120 -5120 0 -5120 0 0
-5120z m5646 3501 c284 -39 600 -123 868 -230 91 -37 329 -155 431 -214 195
-113 429 -285 557 -408 48 -46 54 -71 24 -91 -21 -15 -35 -7 -116 60 -223 182
-360 273 -602 397 -393 202 -779 325 -1188 380 -166 22 -497 30 -660 16 -467
-41 -867 -154 -1279 -361 -305 -153 -613 -367 -869 -604 -86 -80 -112 -101
-97 -76 3 6 0 10 -7 10 -8 1 -7 5 5 14 17 13 16 14 -7 12 -13 0 -22 -4 -19 -8
2 -5 -1 -8 -6 -8 -14 0 -14 3 1 34 10 24 12 24 24 9 11 -16 12 -15 7 7 -3 18
3 32 23 50 15 14 24 18 19 10 -5 -9 -5 -12 1 -7 5 5 9 14 9 20 0 34 392 347
595 475 468 295 1051 491 1585 532 172 13 538 3 701 -19z m42 -430 c124 -63
161 -233 76 -347 -32 -44 -116 -84 -173 -84 -96 1 -178 66 -207 166 -18 64
-14 104 20 180 48 105 172 142 284 85z m-662 -209 c74 -38 103 -118 65 -179
-24 -38 -58 -43 -131 -17 -185 65 -533 -182 -798 -564 -29 -42 -65 -98 -79
-124 -14 -26 -30 -45 -36 -41 -6 3 -7 1 -3 -5 4 -6 -11 -46 -33 -90 -164 -326
-265 -661 -353 -1167 -16 -93 -30 -177 -32 -185 -1 -8 -6 -44 -11 -80 -4 -36
-10 -59 -12 -52 -3 6 -9 10 -14 7 -5 -3 -3 -15 4 -25 9 -15 9 -25 1 -37 -6
-10 -10 -26 -8 -36 2 -15 0 -16 -12 -6 -10 8 -11 15 -4 24 8 9 8 15 0 20 -6 4
-7 13 -1 23 4 9 6 23 4 29 -3 7 2 16 11 19 9 3 16 14 16 23 0 13 -2 13 -9 2
-6 -9 -10 -4 -13 18 -5 34 0 38 22 19 7 -7 6 -2 -3 12 -10 13 -17 31 -17 38 0
12 3 12 18 1 15 -13 16 -12 4 3 -11 14 -10 18 5 27 11 6 13 11 5 11 -7 0 -10
5 -6 12 4 7 3 8 -5 4 -6 -4 -9 -11 -6 -16 3 -5 1 -11 -5 -15 -5 -3 -10 -1 -10
4 0 6 -8 11 -17 11 -15 0 -14 -2 3 -16 15 -12 15 -14 2 -10 -11 3 -18 -3 -22
-20 -4 -14 -4 -29 -1 -34 4 -6 2 -10 -3 -10 -5 0 -12 -19 -15 -42 -3 -24 -16
-108 -30 -188 -14 -80 -28 -163 -31 -185 -2 -22 -18 -121 -35 -220 -16 -99
-39 -243 -51 -320 -12 -77 -30 -190 -41 -251 -10 -61 -21 -133 -24 -160 -14
-107 -67 -278 -121 -389 -41 -85 -119 -190 -193 -262 -136 -132 -382 -202
-551 -158 -145 38 -320 144 -305 184 3 9 3 12 -1 8 -9 -9 -64 42 -64 60 0 7
-4 13 -10 13 -5 0 -10 9 -10 21 0 13 -4 18 -12 13 -7 -5 -9 -2 -5 9 3 8 0 18
-8 21 -8 3 -17 21 -21 41 -3 19 -10 38 -15 41 -15 9 -10 -45 6 -76 9 -17 16
-33 17 -37 1 -5 7 -22 15 -40 7 -18 13 -35 13 -39 0 -3 10 -15 23 -26 12 -11
15 -17 7 -13 -9 4 -8 0 3 -8 10 -9 20 -21 21 -29 1 -7 8 -23 14 -35 17 -30 7
-29 -26 3 -15 15 -21 23 -13 19 9 -6 12 -4 7 4 -4 6 -11 9 -16 6 -13 -8 -31
21 -24 41 4 15 4 16 -4 5 -15 -21 -65 65 -99 169 -25 76 -28 99 -27 215 0 114
4 141 28 215 58 177 121 269 803 1177 251 334 501 673 556 753 122 177 137
197 137 179 0 -52 -73 -408 -90 -440 -49 -93 -436 -613 -450 -604 -5 3 -12 1
-15 -5 -4 -6 -16 -8 -28 -5 -20 5 -20 5 -4 -5 14 -9 22 -9 33 0 7 7 14 9 14 5
0 -9 -39 -67 -54 -80 -7 -5 -27 -31 -46 -57 -35 -50 -43 -58 -34 -33 8 20 -4
19 -51 -5 -40 -21 -40 -21 -17 -1 13 12 22 25 20 31 -2 6 -22 -14 -45 -43 -30
-39 -41 -61 -37 -78 3 -19 3 -20 -4 -5 -7 15 -17 6 -67 -60 -95 -123 -121
-159 -124 -166 -1 -4 -10 -18 -21 -30 -32 -38 -143 -188 -202 -273 -134 -193
-169 -278 -176 -431 -2 -64 0 -133 7 -164 13 -58 51 -150 63 -150 5 0 8 -5 8
-11 0 -5 -6 -7 -13 -3 -6 4 -8 3 -4 -1 10 -12 39 -16 32 -5 -3 5 -1 11 4 14
10 7 9 -20 -2 -30 -3 -4 -2 -15 4 -26 6 -11 13 -17 16 -14 3 3 14 1 24 -5 14
-7 19 -6 19 3 0 9 3 9 10 -2 6 -9 5 -17 -3 -23 -8 -6 -7 -7 3 -4 8 2 14 9 13
15 -2 6 4 9 12 5 13 -4 13 -8 3 -21 -8 -10 -9 -13 -1 -9 6 4 14 1 17 -5 3 -7
3 -1 1 14 -2 15 1 30 6 33 5 4 9 2 9 -2 0 -10 12 -16 100 -59 78 -38 137 -51
210 -47 230 12 434 175 530 424 47 122 66 211 115 544 26 171 62 405 80 520
19 116 41 260 50 320 21 134 103 597 150 835 154 783 521 1413 1018 1744 47
31 114 68 149 83 128 52 269 58 354 15z m3689 -119 c-51 -277 -165 -530 -307
-685 -122 -131 -335 -248 -383 -208 -23 19 -18 28 18 35 129 28 262 115 375
247 69 82 84 108 61 108 -5 0 -7 -5 -3 -12 4 -6 3 -8 -3 -5 -17 11 -345 -157
-409 -209 -33 -26 -62 -52 -66 -58 -4 -6 -9 -8 -13 -5 -12 13 139 130 213 165
188 89 229 111 278 151 51 42 114 127 114 154 0 9 -5 6 -12 -6 -11 -21 -78
-84 -90 -85 -4 0 -12 10 -19 21 -9 17 -8 20 3 16 7 -2 12 -10 10 -16 -1 -7 2
-10 8 -6 8 5 7 11 -1 21 -9 11 -9 18 -1 26 13 13 35 1 26 -15 -4 -7 -3 -8 2
-4 5 5 9 18 9 30 1 14 6 21 15 19 8 -2 12 -1 8 3 -3 4 11 32 33 62 21 31 39
61 39 67 0 6 -13 -9 -29 -34 -63 -100 -161 -171 -333 -240 -42 -17 -58 -29
-58 -42 0 -11 -5 -16 -10 -13 -6 4 -8 11 -5 16 8 12 3 11 -36 -6 l-34 -16 33
6 c20 4 32 3 32 -4 0 -15 19 -14 36 3 8 8 14 19 14 25 0 6 5 11 10 11 15 0 12
-16 -5 -30 -8 -7 -12 -16 -9 -21 3 -5 -3 -9 -12 -9 -10 0 -59 -20 -109 -44
-71 -35 -104 -58 -147 -105 -53 -56 -57 -59 -77 -45 -27 19 -27 34 1 70 l22
29 -27 -24 c-23 -21 -27 -22 -33 -8 -9 23 69 129 153 207 88 83 197 147 353
210 68 28 145 64 172 81 57 37 141 127 168 180 28 55 25 59 -10 13 -29 -40
-113 -105 -180 -139 -19 -10 -100 -40 -179 -66 -218 -73 -335 -153 -480 -327
-82 -98 -84 -100 -107 -85 -29 19 -114 118 -114 132 0 29 64 133 119 192 113
124 237 178 465 205 278 31 349 57 486 173 l35 30 3 -24 c2 -14 -4 -64 -13
-112z m-1820 42 c87 -22 231 -97 296 -153 100 -85 209 -222 209 -261 0 -8 -30
-42 -67 -76 l-67 -61 -46 70 c-86 132 -224 233 -366 270 -85 22 -240 20 -361
-3 -287 -56 -522 -195 -1192 -703 -99 -76 -183 -138 -187 -138 -3 0 -2 5 2 12
4 7 3 8 -5 4 -6 -4 -9 -11 -6 -16 3 -4 -17 -24 -45 -44 -48 -35 -84 -52 -44
-21 16 13 16 14 1 9 -10 -4 -22 -14 -27 -24 -16 -30 -411 -300 -438 -300 -15
0 45 47 76 59 31 13 32 15 16 32 -9 10 -21 16 -27 12 -6 -4 -7 -1 -2 6 5 9 10
10 18 2 18 -18 31 -13 16 7 -7 9 -10 14 -5 10 4 -4 18 4 30 17 24 25 48 27 69
5 10 -10 9 -11 -2 -5 -10 6 -12 4 -7 -4 6 -9 11 -9 22 0 8 6 12 14 9 17 -3 3
1 12 7 21 9 12 7 11 -8 -2 -20 -16 -22 -17 -35 0 -12 15 -12 16 3 10 11 -4 19
0 23 12 3 10 20 25 38 34 17 8 27 16 20 16 -7 1 -61 -32 -120 -72 -59 -39
-149 -96 -200 -126 -51 -30 -90 -58 -88 -62 3 -4 -3 -6 -13 -5 -12 1 -17 -6
-16 -21 1 -13 -3 -20 -7 -17 -5 3 -7 10 -4 15 10 15 4 12 -136 -55 -134 -64
-286 -122 -296 -112 -7 7 37 128 51 142 6 6 72 37 146 69 160 70 432 232 623
370 76 55 175 126 220 158 45 32 141 103 212 157 677 517 903 652 1232 735
147 37 357 41 478 10z m-1831 -311 c9 -8 16 -23 16 -32 0 -42 -113 -164 -187
-204 -94 -51 -225 -60 -236 -16 -4 15 2 23 28 34 19 8 40 14 47 14 20 0 135
57 173 85 18 15 52 51 75 81 43 57 59 64 84 38z m1707 -64 c22 -1 103 -70 133
-113 47 -69 64 -138 55 -226 -12 -106 -69 -195 -114 -177 -29 11 -29 38 1 90
24 43 29 62 29 121 0 59 -5 78 -28 118 -31 52 -77 88 -147 112 -50 18 -60 28
-52 57 7 26 38 37 82 27 19 -5 38 -9 41 -9z m-3113 -30 c115 -11 252 -40 252
-53 0 -12 -91 -136 -117 -160 -18 -15 -27 -15 -138 -1 -281 38 -567 -15 -801
-147 -105 -59 -265 -216 -319 -314 -57 -102 -77 -167 -77 -260 0 -158 79 -283
227 -357 105 -53 157 -63 337 -63 l166 0 -26 -49 c-42 -75 -57 -81 -192 -80
-123 1 -212 19 -333 70 -117 49 -206 131 -263 240 -34 65 -50 61 -24 -7 24
-59 24 -64 6 -47 -7 7 -11 19 -8 27 4 10 1 12 -8 6 -8 -5 -11 -4 -7 2 3 5 0
10 -8 10 -12 0 -11 -5 1 -30 9 -16 14 -31 11 -33 -2 -2 -16 23 -31 56 -190
424 133 935 709 1123 211 69 410 90 643 67z m-958 -33 c0 -2 -10 -12 -21 -23
-22 -19 -22 -19 -8 4 12 19 29 30 29 19z m5750 -5 c0 -5 -12 -14 -26 -20 -14
-7 -22 -17 -18 -23 5 -8 9 -8 14 1 4 7 14 10 21 8 9 -3 1 -11 -20 -22 -18 -10
-30 -13 -27 -8 3 6 1 12 -6 14 -15 5 3 26 37 46 24 14 25 14 25 4z m-95 -52
c3 -5 1 -10 -4 -10 -6 0 -11 5 -11 10 0 6 2 10 4 10 3 0 8 -4 11 -10z m-1 -37
c-10 -7 -25 -12 -33 -12 -13 1 -12 2 2 6 9 2 17 8 17 12 0 4 7 8 16 8 14 0 14
-2 -2 -14z m-69 -3 c4 -6 3 -10 -2 -9 -19 3 -27 -2 -15 -10 10 -6 9 -10 -7
-14 -21 -5 -21 2 2 31 12 15 14 15 22 2z m-624 -183 c236 -245 255 -267 230
-260 -12 3 -19 9 -16 13 3 4 -2 11 -11 14 -8 3 -12 2 -9 -4 3 -6 2 -10 -4 -10
-6 0 -8 -7 -5 -15 4 -8 11 -12 17 -8 6 4 7 1 2 -6 -5 -9 -12 -7 -26 8 -23 24
-39 27 -39 7 0 -20 61 -86 73 -79 6 3 7 1 4 -4 -4 -6 -1 -16 6 -22 10 -8 21
-3 45 18 30 28 31 28 48 10 20 -22 14 -42 -22 -65 l-26 -18 -264 270 -263 269
34 33 c19 17 38 32 42 32 5 0 87 -82 184 -183z m-2990 -19 c86 -39 164 -77
175 -85 18 -13 17 -15 -11 -38 -17 -13 -44 -31 -61 -41 l-30 -17 -150 70 c-82
39 -175 80 -206 93 -32 13 -58 27 -58 31 0 4 25 26 56 48 66 47 32 54 285 -61z
m2760 -39 l82 -80 -29 -30 c-15 -16 -33 -29 -39 -29 -14 0 -155 142 -155 156
0 15 39 64 51 64 5 0 45 -36 90 -81z m-993 55 c36 -25 55 -72 48 -121 -8 -62
-38 -115 -104 -181 -109 -110 -253 -187 -427 -228 -173 -41 -628 -14 -554 32
8 5 9 3 4 -6 -6 -10 0 -12 31 -7 28 5 35 4 24 -4 -12 -8 -11 -9 5 -7 14 3 19
10 17 23 -3 20 -3 20 12 0 8 -11 16 -15 16 -10 0 6 5 3 10 -5 8 -12 10 -12 10
-1 0 10 3 11 13 2 10 -8 14 -7 14 3 0 8 -10 12 -29 11 -15 -1 -28 1 -28 5 0 4
48 5 107 3 125 -5 135 1 18 11 -106 9 -264 41 -334 67 -25 10 -24 11 44 55 51
33 76 43 93 39 54 -14 174 -24 274 -25 176 0 310 34 428 111 81 52 116 91 150
166 16 33 37 66 47 72 27 16 85 13 111 -5z m852 -189 l75 -75 -30 -30 -30 -30
-80 80 -79 79 24 26 c13 14 28 25 34 25 7 0 45 -34 86 -75z m-2750 15 c8 -5
11 -10 5 -10 -5 0 -17 5 -25 10 -8 5 -10 10 -5 10 6 0 17 -5 25 -10z m97 -45
c0 -8 -4 -12 -9 -9 -5 3 -6 10 -3 15 9 13 12 11 12 -6z m2982 -22 l31 -38 -30
-29 -29 -30 -26 24 c-37 34 -41 58 -14 86 12 13 26 24 30 24 4 0 21 -17 38
-37z m-260 -301 c135 -141 201 -217 197 -227 -10 -28 -31 -15 -103 64 -57 62
-69 81 -60 91 9 10 9 11 0 6 -7 -4 -13 -3 -13 2 0 6 -12 15 -27 20 -16 6 -95
77 -177 158 l-150 147 24 19 24 19 41 -43 c23 -24 133 -139 244 -256z m125
156 c15 -21 14 -24 -11 -50 l-27 -28 -36 35 -35 36 28 25 c31 27 53 22 81 -18z
m221 13 c7 -13 -24 -43 -36 -35 -6 4 -3 14 7 25 20 22 21 22 29 10z m-622
-123 c254 -256 367 -374 367 -385 0 -29 -32 -17 -78 30 -28 29 -50 55 -49 58
1 3 -15 20 -35 38 -21 18 -35 38 -31 44 3 6 1 7 -6 3 -18 -12 -326 296 -318
318 4 9 11 16 17 16 6 0 66 -55 133 -122z m-3823 83 c19 -10 48 -36 63 -58 76
-107 28 -254 -92 -283 -180 -43 -304 174 -179 315 49 57 129 67 208 26z m3400
-46 c6 -8 9 -22 6 -32 -5 -16 -553 -549 -598 -581 -20 -15 -58 -1 -58 21 0 22
603 607 626 607 6 0 17 -7 24 -15z m1168 -44 c-2 -18 -10 -27 -26 -29 -29 -4
-39 23 -17 48 23 25 47 15 43 -19z m-2378 13 c0 -8 -19 -13 -24 -6 -3 5 1 9 9
9 8 0 15 -2 15 -3z m1479 -88 c58 -59 63 -67 50 -83 -12 -16 -12 -17 2 -6 13
11 19 10 32 -5 16 -17 -2 -37 -334 -363 -193 -189 -357 -348 -365 -352 -14 -8
-101 61 -182 145 l-32 34 297 284 c164 156 329 317 367 357 53 56 72 70 85 63
9 -5 45 -38 80 -74z m631 70 c0 -2 -8 -10 -17 -17 -16 -13 -17 -12 -4 4 13 16
21 21 21 13z m122 -93 c23 -21 23 -36 -2 -58 -20 -18 -21 -18 -48 9 l-27 27
24 20 c28 23 30 23 53 2z m-3067 -31 c-11 -2 -23 -9 -27 -15 -8 -14 -36 -18
-43 -7 -3 5 3 7 14 5 13 -2 22 3 26 15 4 13 12 16 28 12 21 -6 21 -6 2 -10z
m-63 -51 c-5 -3 -11 -13 -14 -20 -3 -12 -6 -12 -11 2 -3 9 -2 17 4 17 6 0 7 4
4 10 -3 6 1 7 10 3 9 -3 12 -9 7 -12z m1212 -5 c46 -19 76 -51 76 -80 0 -13
-45 -116 -100 -228 -109 -222 -132 -294 -110 -347 17 -43 51 -58 152 -71 47
-5 109 -17 139 -26 141 -42 324 -165 411 -277 18 -23 24 -35 14 -27 -17 13
-17 11 3 -27 34 -67 52 -163 50 -266 -2 -52 1 -100 6 -108 4 -8 -3 -4 -17 9
-26 24 -46 19 -25 -7 10 -14 10 -14 -4 -4 -9 7 -20 9 -24 5 -5 -4 -5 -1 -1 6
4 7 2 12 -6 13 -10 0 -11 2 0 6 9 4 10 8 2 18 -7 9 -8 15 -1 19 6 4 7 14 4 23
-6 15 -5 16 9 3 10 -10 12 -17 5 -21 -5 -4 -7 -15 -3 -25 5 -13 10 -14 18 -6
15 15 19 60 6 68 -7 5 -8 2 -3 -6 5 -9 4 -11 -3 -6 -7 4 -12 13 -12 21 0 10
-14 13 -53 11 -35 -1 -54 2 -54 9 0 6 6 12 13 12 7 0 10 -5 7 -10 -3 -6 -1 -7
5 -3 7 4 12 14 12 23 0 12 -3 13 -14 4 -14 -12 -24 -4 -64 55 -7 11 -5 3 4
-16 9 -19 22 -38 28 -42 8 -5 7 -8 -2 -8 -9 0 -10 -5 -3 -19 6 -10 13 -49 17
-87 4 -38 8 -76 10 -84 1 -8 3 -21 3 -28 1 -7 6 -10 13 -6 7 4 8 3 4 -5 -24
-38 46 -140 110 -161 56 -19 165 13 147 43 -3 6 -1 7 5 3 6 -4 26 7 44 24 17
17 24 28 15 24 -21 -8 -20 15 1 31 7 6 12 16 10 22 -5 18 414 422 438 423 27
0 38 -26 21 -49 -34 -48 -515 -500 -558 -524 -36 -21 -62 -29 -97 -29 -121 1
-182 68 -203 219 -28 209 -56 277 -154 381 -100 107 -170 141 -460 227 -77 23
-97 34 -136 74 -51 50 -69 96 -69 175 0 93 43 213 173 487 84 176 115 201 201
165z m-1258 -9 c8 3 14 1 14 -5 0 -16 -28 -22 -34 -7 -3 9 -12 12 -22 8 -15
-6 -15 -8 6 -25 12 -10 17 -18 11 -18 -7 0 -10 -4 -6 -9 10 -17 -12 -21 -25
-6 -10 12 -9 15 5 15 17 0 17 1 1 19 -17 18 -17 20 1 29 10 6 22 7 27 2 5 -5
15 -6 22 -3z m24 -31 c0 -2 -7 -7 -16 -10 -8 -3 -12 -2 -9 4 6 10 25 14 25 6z
m2540 -11 c11 -13 -12 -40 -161 -186 -96 -94 -231 -227 -300 -295 -69 -68
-129 -121 -134 -117 -4 5 -5 3 -2 -3 3 -6 -20 -36 -52 -68 -48 -47 -60 -55
-69 -43 -10 12 51 79 340 370 194 195 356 355 359 356 4 0 12 -6 19 -14z
m-2656 -62 c-10 -7 -25 -12 -33 -12 -12 1 -12 2 2 6 9 2 15 8 13 12 -3 4 4 7
15 7 19 0 19 -1 3 -13z m-104 1 c0 -8 -19 -13 -24 -6 -3 5 1 9 9 9 8 0 15 -2
15 -3z m36 -39 c-11 -8 -25 -15 -30 -15 -6 1 0 7 14 15 32 19 40 18 16 0z
m-96 -21 c0 -8 -19 -13 -24 -6 -3 5 1 9 9 9 8 0 15 -2 15 -3z m25 -15 c-4 -5
-12 -9 -18 -8 -9 0 -8 2 1 6 6 2 9 10 6 15 -4 7 -2 8 5 4 6 -4 9 -12 6 -17z
m3776 -25 c161 -47 290 -174 300 -296 3 -38 -2 -50 -24 -54 -7 -2 -22 -6 -34
-10 -16 -4 -23 -2 -23 7 0 11 -2 11 -10 -1 -6 -10 -10 -11 -10 -3 0 43 -121
182 -178 205 -32 13 -102 17 -102 6 0 -4 7 -8 15 -8 9 0 12 -6 8 -17 -4 -11
-3 -14 5 -9 18 11 14 0 -5 -15 -14 -12 -16 -12 -8 0 6 11 2 13 -19 7 -17 -4
-25 -3 -22 3 7 10 -19 9 -30 -2 -4 -4 -24 -7 -44 -7 -44 0 -138 -31 -194 -64
-98 -58 -186 -178 -186 -256 0 -51 29 -102 70 -122 43 -22 94 -23 212 -2 168
29 279 8 366 -70 43 -39 87 -127 79 -157 -3 -11 -1 -19 4 -19 5 0 9 -22 9 -50
0 -43 -2 -49 -17 -43 -16 6 -16 3 2 -18 l20 -24 -21 18 c-29 24 -48 22 -41 -4
3 -12 3 -18 0 -15 -4 3 -13 0 -22 -7 -14 -11 -14 -10 -2 6 12 15 11 17 -3 17
-10 0 -19 -11 -22 -30 -4 -16 -11 -30 -16 -30 -5 0 -8 -6 -6 -12 5 -24 -51
-105 -109 -158 -155 -142 -394 -198 -587 -139 -60 18 -78 29 -128 81 -38 39
-66 61 -83 62 -28 1 -29 6 -15 58 13 44 43 68 87 68 26 0 40 -10 85 -61 29
-34 70 -70 91 -80 51 -26 151 -35 229 -19 170 33 286 129 344 285 4 11 6 24 5
28 -1 5 4 5 10 1 20 -12 7 -69 -40 -169 -14 -31 35 27 60 70 48 84 36 170 -34
232 -55 48 -95 57 -211 47 -56 -4 -142 -8 -193 -9 -91 0 -91 0 -89 -25 1 -17
8 -25 19 -24 9 1 17 -3 17 -8 0 -6 7 -7 16 -4 8 3 12 2 9 -4 -9 -14 -80 -3
-135 21 -56 24 -109 76 -142 139 -20 39 -23 59 -23 145 0 86 4 109 28 165 71
168 264 328 453 374 81 20 218 20 285 0z m-1011 3 c0 -2 -10 -12 -22 -23 l-23
-19 19 23 c18 21 26 27 26 19z m224 -69 c-5 -9 -2 -9 9 1 9 7 17 9 17 4 0 -13
-688 -673 -710 -681 -4 -2 -10 6 -13 17 -3 13 5 29 24 47 16 15 29 26 29 23 0
-3 71 65 158 151 352 347 460 450 476 450 11 0 14 -4 10 -12z m-114 -2 c0 -2
-8 -10 -17 -17 -16 -13 -17 -12 -4 4 13 16 21 21 21 13z m-210 -35 c0 -4 -10
-15 -22 -25 -13 -10 -41 -35 -63 -55 l-40 -36 38 41 c20 22 34 44 30 49 -5 4
-3 5 3 2 7 -4 14 1 16 11 5 17 38 28 38 13z m115 -61 c-27 -27 -52 -50 -56
-50 -8 0 93 99 101 100 2 0 -18 -22 -45 -50z m985 -5 c0 -2 -6 -7 -12 -11 -7
-4 -10 -4 -6 1 4 4 0 14 -10 22 -15 13 -15 13 6 3 12 -6 22 -13 22 -15z
m-3319 -51 c12 -11 19 -34 21 -68 l3 -51 45 -3 c177 -10 262 -45 319 -131 35
-53 36 -57 36 -150 0 -53 -4 -105 -9 -116 -5 -11 -11 -29 -13 -40 -6 -30 -53
-129 -65 -136 -11 -7 -47 8 -59 24 -5 7 -38 -60 -56 -113 -4 -13 -4 -13 6 0 7
9 11 11 11 3 0 -7 -8 -17 -17 -23 -16 -10 -16 -10 2 -8 27 4 36 18 24 40 -6
12 -6 18 0 18 5 0 11 12 13 28 3 31 22 33 24 2 1 -11 -3 -17 -9 -13 -6 4 -8 0
-4 -11 4 -10 3 -15 -3 -11 -6 3 -10 -1 -10 -10 0 -10 5 -13 12 -9 7 5 9 0 6
-14 -3 -12 -2 -22 3 -24 5 -2 -3 -37 -17 -78 -35 -101 -37 -212 -6 -262 28
-46 76 -71 127 -66 40 3 40 3 37 40 -7 72 66 110 138 73 62 -32 80 -123 33
-167 -79 -74 -211 -98 -317 -58 -80 31 -132 80 -172 165 l-33 70 -1 -42 c0
-44 26 -123 40 -123 5 0 11 -8 14 -18 4 -10 26 -33 51 -52 24 -18 42 -37 39
-41 -2 -4 4 -12 13 -18 31 -18 4 -12 -35 8 -151 78 -223 253 -178 431 9 36 46
135 83 220 101 239 115 281 109 319 -3 18 -12 41 -21 51 -21 24 -89 40 -165
40 -93 0 -169 41 -206 112 -17 32 -18 96 -3 135 32 85 135 127 190 77z m2269
-8 c0 -2 -7 -9 -15 -16 -13 -11 -14 -10 -9 4 5 14 24 23 24 12z m-40 -30 c0
-2 -8 -10 -17 -17 -16 -13 -17 -12 -4 4 13 16 21 21 21 13z m-846 -237 c92
-92 94 -98 21 -49 -22 15 -68 42 -102 59 -35 17 -63 34 -63 38 0 11 32 43 43
43 5 0 51 -41 101 -91z m-3689 -29 c37 -40 -19 -95 -64 -63 -23 16 -26 35 -11
64 14 25 52 24 75 -1z m1865 -5 c57 -29 59 -85 9 -225 l-20 -55 63 69 c83 92
170 156 212 156 17 -1 53 -11 80 -23 l48 -23 -43 -13 c-147 -44 -327 -250
-442 -504 -48 -108 -137 -362 -137 -392 0 -8 -8 -19 -17 -24 -10 -6 -12 -11
-5 -11 14 0 17 -30 2 -30 -5 0 -7 -6 -4 -14 3 -8 1 -17 -5 -20 -6 -4 -7 -14
-4 -23 6 -15 5 -16 -9 -3 -9 8 -12 18 -7 21 12 7 22 59 12 59 -5 0 -8 11 -8
24 0 20 3 22 18 15 26 -15 20 -2 -8 17 -21 13 -28 14 -41 4 -8 -7 -13 -19 -10
-27 3 -7 2 -13 -3 -13 -17 0 -42 -146 -48 -272 -4 -96 -3 -128 6 -128 7 0 9
-4 6 -10 -3 -5 1 -10 10 -10 13 0 14 -4 4 -21 -6 -12 -19 -24 -29 -26 -11 -3
-16 -11 -13 -19 3 -8 1 -14 -5 -14 -13 0 -9 -27 6 -42 10 -10 17 -10 33 0 12
8 18 9 15 3 -5 -7 -1 -8 10 -4 15 6 14 9 -7 26 -16 13 -18 18 -6 14 19 -7 24
8 5 16 -7 3 2 3 20 0 35 -6 41 3 16 22 -16 11 -16 12 0 18 10 4 15 3 11 -3 -3
-6 1 -13 10 -16 12 -5 13 -9 4 -20 -11 -13 -5 -18 14 -15 5 1 5 -4 1 -11 -29
-52 -82 -70 -132 -44 -17 9 -47 41 -68 71 -33 51 -37 63 -41 143 -6 93 17 242
62 417 21 78 235 752 282 885 30 83 85 110 153 75z m-709 -178 c-13 -13 -26
-3 -16 12 3 6 11 8 17 5 6 -4 6 -10 -1 -17z m-1792 -31 c9 -10 9 -55 1 -177
-6 -90 -11 -204 -13 -254 -2 -85 -3 -90 -24 -93 -17 -3 -21 0 -17 12 4 11 0
16 -13 16 -15 0 -19 8 -21 43 -7 177 -7 225 -1 322 4 61 10 118 14 128 9 21
57 23 74 3z m1786 -36 c-4 -17 -10 -29 -13 -25 -9 9 -12 38 -6 59 10 31 27 1
19 -34z m2992 43 c-4 -3 -1 -13 6 -22 11 -14 10 -14 -5 -2 -21 15 -23 31 -6
31 6 0 8 -3 5 -7z m2155 -48 c11 -88 9 -327 -3 -319 -8 4 -8 1 -1 -12 12 -24
5 -44 -16 -44 -15 -1 -15 -2 1 -11 21 -12 23 -33 2 -26 -8 4 -17 2 -20 -3 -4
-6 3 -10 15 -10 16 0 21 -5 18 -22 -2 -12 -9 -23 -16 -24 -7 -1 -8 0 -2 3 19
9 10 31 -16 37 -19 5 -30 2 -40 -11 -13 -17 -13 -17 -14 0 0 9 3 17 8 17 8 0
7 223 -2 364 -7 101 1 119 48 114 29 -3 31 -6 38 -53z m-6341 -18 c47 -32 64
-70 49 -107 -18 -42 -32 -51 -112 -66 -87 -17 -139 -49 -178 -111 -44 -69 -56
-141 -36 -220 13 -54 29 -85 90 -168 9 -12 -40 -94 -57 -95 -13 0 -92 78 -107
105 -7 14 -19 25 -27 25 -15 0 11 -59 50 -114 21 -30 12 -29 -28 3 -20 16 -20
16 -1 -7 29 -33 11 -39 -19 -6 -37 43 -82 141 -94 208 -44 242 45 443 242 541
88 44 173 49 228 12z m5177 -6 c-7 -9 -13 -18 -15 -20 -1 -2 -1 5 0 16 0 11 7
20 14 20 10 0 10 -4 1 -16z m-1899 -38 c47 -15 88 -28 90 -30 7 -4 -52 -69
-206 -225 l-154 -157 -36 24 c-54 37 -140 45 -208 19 -11 -5 41 50 115 121 74
72 169 162 210 202 41 40 81 73 89 73 8 0 53 -12 100 -27z m729 -48 c-3 -3 -9
2 -12 12 -6 14 -5 15 5 6 7 -7 10 -15 7 -18z m-630 -74 c-29 -30 -56 -55 -59
-54 -4 1 -17 -13 -30 -32 -14 -20 -30 -33 -37 -30 -8 3 -12 0 -9 -7 2 -7 -26
-44 -63 -83 -38 -38 -80 -85 -95 -103 -22 -26 -30 -30 -42 -21 -12 10 -7 19
28 55 23 24 47 40 53 37 6 -3 8 -2 3 2 -9 11 63 86 75 79 5 -3 7 -2 6 3 -5 15
196 221 210 216 8 -4 -6 -25 -40 -62z m-2198 55 c0 -2 -8 -10 -17 -17 -16 -13
-17 -12 -4 4 13 16 21 21 21 13z m1510 -23 c0 -7 -40 -83 -44 -83 -7 0 6 40
15 46 5 3 9 10 9 15 0 6 -4 7 -10 4 -10 -6 -14 7 -5 17 6 5 35 7 35 1z m790
-17 c0 -2 -8 -10 -17 -17 -16 -13 -17 -12 -4 4 13 16 21 21 21 13z m-2284 -59
c1 -8 -4 -14 -12 -14 -9 0 -11 4 -4 12 6 7 6 16 0 23 -7 9 -7 9 2 2 6 -5 13
-16 14 -23z m4599 -37 c-3 -5 -12 -10 -18 -10 -7 0 -6 4 3 10 19 12 23 12 15
0z m-5067 -27 c0 -13 -5 -23 -11 -23 -6 0 -7 -3 -4 -6 8 -8 -31 -64 -43 -61
-4 1 -8 0 -7 -3 3 -13 -39 -70 -51 -70 -7 0 -11 -4 -8 -8 8 -13 -24 -53 -36
-46 -7 5 -9 1 -5 -9 7 -19 -7 -30 -39 -32 -21 -1 -22 0 -6 16 9 9 20 15 25 12
4 -2 7 1 7 6 0 6 -4 11 -10 11 -5 0 -7 7 -3 16 5 14 3 15 -17 4 -21 -11 -20
-8 9 29 18 22 37 38 43 35 6 -4 9 -1 6 7 -2 7 1 20 8 29 37 44 55 63 48 51 -5
-9 -3 -12 4 -7 7 4 12 14 12 22 0 20 40 53 61 51 10 -1 17 -10 17 -24z m3339
-35 c-3 -7 -5 -2 -5 12 0 14 2 19 5 13 2 -7 2 -19 0 -25z m-380 -14 c3 -9 -4
-24 -18 -37 -59 -54 -256 -242 -376 -360 -83 -80 -137 -126 -144 -121 -7 4 -9
3 -6 -3 8 -13 -169 -187 -183 -178 -5 3 -10 0 -10 -7 0 -19 -64 -80 -75 -71
-4 5 -5 3 -2 -3 4 -6 -2 -19 -12 -28 -16 -15 -19 -15 -31 -1 -11 14 -7 22 30
60 24 24 47 42 51 40 3 -3 13 3 20 12 12 14 12 16 -1 8 -20 -11 14 21 70 66
25 20 82 73 127 118 46 44 85 81 87 81 2 0 48 44 103 98 55 53 123 119 151
146 29 27 52 52 52 56 0 4 9 10 20 13 11 3 23 13 26 24 9 25 85 103 101 103 8
0 16 -7 20 -16z m2089 1 c-1 -8 -5 -17 -8 -21 -5 -4 -4 16 1 34 3 9 9 -1 7
-13z m-1816 -15 c-8 -5 -19 -10 -25 -10 -5 0 -3 5 5 10 8 5 20 10 25 10 6 0 3
-5 -5 -10z m129 -49 c0 -14 -1 -14 -6 -1 -3 8 -10 24 -15 35 -9 20 -9 20 6 1
9 -11 16 -27 15 -35z m-178 26 c-6 -8 -8 -16 -5 -19 3 -3 1 -9 -4 -12 -6 -3
-9 0 -8 6 2 16 15 38 23 38 3 0 0 -6 -6 -13z m30 -10 c-6 -8 -7 -18 -3 -22 4
-5 1 -5 -6 -1 -10 6 -10 11 -1 22 6 8 14 14 16 14 3 0 0 -6 -6 -13z m120 -58
c-9 -22 -10 -22 -10 -3 -1 11 2 24 6 27 12 12 14 0 4 -24z m20 -6 c-12 -20
-14 -14 -5 12 4 9 9 14 11 11 3 -2 0 -13 -6 -23z m747 -28 c-2 -15 -6 -21 -11
-16 -6 6 -7 17 -4 25 9 24 17 19 15 -9z m-4443 6 c3 -6 -3 -8 -14 -6 -11 2
-25 -3 -31 -11 -7 -7 -16 -12 -20 -9 -5 3 -11 1 -15 -5 -3 -5 -12 -10 -18 -10
-7 0 -3 7 7 15 10 8 22 12 26 10 4 -3 13 2 20 10 14 17 36 20 45 6z m3628 -13
c-4 -7 -8 -16 -8 -20 0 -3 -3 -9 -7 -12 -5 -3 -6 -3 -3 1 3 3 -1 13 -8 21 -8
11 -8 14 0 9 6 -4 14 -3 18 3 3 5 8 10 11 10 3 0 2 -6 -3 -12z m85 -36 c12
-24 15 -39 8 -33 -7 6 -17 7 -21 3 -5 -4 -5 -1 -1 6 9 16 -3 54 -15 47 -5 -3
-6 1 -3 10 8 19 7 20 32 -33z m-3738 3 c-7 -9 -15 -13 -17 -11 -7 7 7 26 19
26 6 0 6 -6 -2 -15z m3595 -34 c3 -5 2 -12 -3 -15 -5 -3 -9 1 -9 9 0 17 3 19
12 6z m-3485 -17 c0 -8 -19 -13 -24 -6 -3 5 1 9 9 9 8 0 15 -2 15 -3z m3187
-74 c1 -25 -60 -100 -82 -100 -5 0 -1 7 9 15 22 16 10 20 -14 5 -8 -5 -11 -12
-7 -16 8 -8 -101 -124 -117 -124 -5 0 1 9 14 20 18 16 20 20 7 20 -22 0 -22
16 1 29 9 6 12 11 6 11 -18 0 -37 -28 -28 -41 4 -8 3 -9 -4 -5 -7 4 -12 1 -12
-8 0 -9 -5 -16 -10 -16 -7 0 -7 6 0 20 6 11 8 20 6 20 -3 0 15 19 41 43 25 23
50 41 55 40 4 -2 8 3 8 11 0 8 9 18 20 21 11 4 19 12 18 18 -1 7 8 25 22 40
30 35 64 33 67 -3z m2413 -10 c24 -24 25 -43 4 -64 -30 -31 -74 -13 -74 30 0
23 24 54 41 54 5 0 18 -9 29 -20z m-320 -91 c68 -14 117 -38 151 -76 33 -35
68 -90 52 -80 -7 5 -13 4 -13 0 0 -8 -18 -12 -63 -13 -13 -1 -17 -6 -13 -17 6
-14 4 -14 -10 -2 -10 8 -12 15 -5 17 6 2 11 8 11 13 0 6 -4 8 -8 5 -5 -3 -26
5 -48 17 -30 16 -56 21 -109 21 -62 1 -78 -4 -140 -37 -94 -51 -176 -112 -416
-313 -239 -200 -285 -234 -313 -234 -28 0 -56 32 -45 52 5 9 88 87 186 174 97
88 206 185 242 217 155 139 295 229 395 252 69 16 84 16 146 4z m-1220 -14
c59 -30 115 -165 126 -304 11 -131 -23 -297 -86 -421 -34 -67 -99 -162 -129
-189 -14 -13 -19 -20 -11 -15 8 4 -3 -13 -24 -39 -35 -43 -46 -53 -46 -43 0 2
13 18 29 37 17 18 28 35 26 37 -6 7 -110 -81 -107 -90 1 -5 -2 -7 -8 -3 -5 3
-22 -3 -38 -13 -52 -38 -191 -102 -283 -132 -267 -88 -521 -78 -865 34 -110
36 -233 94 -412 195 l-94 53 43 44 43 44 60 -34 c238 -131 332 -174 477 -216
153 -44 231 -55 404 -54 139 1 173 4 257 27 122 32 281 109 373 180 173 133
265 319 268 542 1 107 -17 176 -67 255 -40 61 -43 81 -20 104 19 20 47 20 84
1z m-2068 -142 c95 -95 114 -123 83 -123 -19 0 -215 177 -215 194 0 15 10 26
24 26 6 0 55 -44 108 -97z m-832 81 c0 -8 -19 -13 -24 -6 -3 5 1 9 9 9 8 0 15
-2 15 -3z m1028 -30 c12 -4 22 -10 22 -14 0 -10 -49 0 -56 11 -6 10 2 11 34 3z
m68 -22 c-10 -2 -22 0 -28 6 -6 6 0 7 19 4 21 -5 23 -7 9 -10z m709 -4 c4 -3
2 -9 -3 -12 -5 -3 -15 1 -21 8 -10 11 -9 14 3 12 9 -1 18 -5 21 -8z m-69 -10
c5 -7 2 -9 -7 -6 -12 5 -14 -1 -11 -23 2 -16 8 -26 13 -24 4 3 7 11 5 18 -1 7
-1 9 1 4 3 -4 9 -5 14 -1 20 12 6 -5 -48 -56 -32 -30 -49 -45 -39 -33 10 12
15 26 11 32 -3 6 0 9 8 5 8 -3 20 3 28 12 12 16 12 17 -3 11 -9 -3 -22 0 -28
8 -9 11 -7 12 9 8 12 -3 21 -1 21 6 0 6 -8 11 -17 12 -15 0 -15 2 2 9 11 5 16
9 12 9 -11 1 2 21 13 21 5 0 12 -5 16 -12z m-971 -171 c52 -57 61 -77 39 -83
-5 -2 -56 41 -114 95 -91 86 -103 101 -91 115 12 14 18 12 62 -25 27 -22 74
-68 104 -102z m3529 128 c-4 -8 -1 -15 5 -15 6 0 11 7 11 15 0 8 5 15 10 15
17 0 24 -30 10 -43 -10 -9 -11 -9 -6 1 9 15 1 15 -26 1 -12 -7 -18 -7 -14 -1
3 6 0 13 -6 15 -10 4 -9 8 2 16 20 14 20 14 14 -4z m-2657 -72 c0 -8 -4 -10
-12 -3 -7 5 -16 6 -20 2 -5 -4 -5 -2 -2 4 9 15 34 13 34 -3z m-47 -6 c0 -2
-15 -16 -32 -33 l-33 -29 29 33 c28 30 36 37 36 29z m-889 -210 c7 -13 6 -19
-6 -23 -11 -5 -40 17 -93 67 -107 103 -117 116 -101 135 11 13 25 3 101 -73
49 -48 94 -96 99 -106z m932 186 c4 8 6 8 6 1 1 -7 -17 -28 -39 -48 -46 -41
-80 -48 -80 -15 0 16 5 20 20 16 14 -3 24 1 31 15 8 14 14 17 23 9 7 -6 16 -8
19 -4 4 3 -1 12 -11 20 -15 13 -15 13 5 4 16 -8 23 -8 26 2z m-1127 -204 c49
-55 90 -107 92 -114 9 -37 -26 -16 -122 76 -91 87 -104 103 -96 120 6 10 17
19 24 19 8 0 54 -45 102 -101z m594 56 c13 -14 20 -25 15 -25 -4 0 -14 8 -22
18 -13 15 -13 15 -3 -5 6 -13 15 -23 20 -23 6 0 10 -9 10 -20 0 -27 -16 -18
-61 34 -19 22 -29 37 -22 33 6 -4 14 -3 18 3 10 15 19 12 45 -15z m1420 10
c81 -17 203 -66 238 -95 22 -18 23 -22 11 -57 -13 -41 -47 -113 -53 -113 -2 0
-40 15 -83 34 -118 50 -173 60 -315 54 -97 -4 -140 -11 -203 -32 -124 -41
-291 -128 -425 -222 -121 -83 -123 -84 -156 -72 l-34 12 27 22 c15 12 33 19
40 17 7 -3 13 0 13 6 0 7 12 23 28 37 l27 26 -32 -22 c-18 -12 -33 -26 -33
-32 0 -6 -3 -8 -6 -5 -4 4 -19 -2 -34 -13 -16 -11 -36 -20 -47 -20 -26 0 -85
38 -77 51 12 21 211 173 306 236 145 95 292 157 444 187 94 19 276 19 364 1z
m-2135 -175 l80 -80 -192 -186 c-106 -102 -193 -184 -195 -182 -2 2 -19 -13
-39 -32 -19 -19 -116 -109 -214 -200 -99 -91 -238 -221 -309 -290 -71 -69
-126 -117 -123 -107 18 49 -91 -67 -132 -142 -5 -9 -12 -14 -15 -11 -2 3 28
64 67 135 39 72 105 203 147 291 l75 162 95 86 c52 47 223 209 380 361 157
151 287 274 290 275 3 0 41 -36 85 -80z m635 8 c0 -25 -22 -22 -50 7 -13 14
-18 25 -12 25 7 0 12 8 12 17 0 14 4 12 25 -7 14 -13 25 -32 25 -42z m-2159
19 c132 -89 130 -284 -4 -353 -37 -20 -137 -20 -174 0 -64 32 -113 114 -113
186 0 72 47 151 105 176 51 22 146 18 186 -9z m1985 -69 c4 -7 3 -8 -4 -4 -7
4 -12 2 -12 -4 0 -6 10 -10 22 -8 11 2 23 -3 26 -11 3 -9 0 -11 -8 -6 -9 5
-11 4 -6 -4 4 -6 11 -9 15 -7 14 9 34 -12 28 -29 -4 -9 -11 -13 -17 -10 -6 4
-7 11 -4 17 4 7 2 8 -4 4 -7 -4 -24 7 -41 26 -20 23 -26 35 -18 40 15 10 15
10 23 -4z m3072 -24 c85 -35 129 -114 120 -213 -9 -92 -79 -151 -180 -151
-148 0 -230 141 -165 284 22 47 33 60 69 76 52 24 106 25 156 4z m-3463 -109
c-27 -25 -53 -45 -57 -45 -5 0 -7 -3 -5 -7 1 -5 -7 -17 -19 -28 -80 -76 -92
-86 -90 -72 3 24 200 217 210 206 6 -5 -9 -26 -39 -54z m311 10 c16 -22 24
-41 20 -52 -6 -14 -11 -11 -36 18 -29 33 -39 69 -21 69 6 0 22 -16 37 -35z
m2464 -160 c67 -74 117 -135 112 -135 -6 0 -13 6 -15 13 -3 6 -6 0 -6 -15 -1
-14 -4 -34 -8 -44 -4 -11 -3 -15 4 -11 6 4 13 1 16 -7 7 -17 -18 -15 -35 2
-15 15 -28 15 -28 1 0 -5 5 -7 10 -4 6 3 10 -2 10 -12 0 -12 -14 -3 -50 32
-27 27 -49 56 -47 65 1 8 -3 14 -10 13 -7 -2 -41 31 -78 73 -59 67 -64 77 -54
97 22 40 41 67 49 67 4 0 63 -61 130 -135z m-2616 -23 c-33 -31 -111 -105
-173 -164 -62 -60 -117 -105 -122 -102 -5 3 -8 2 -7 -3 5 -14 -340 -345 -352
-338 -5 3 -8 0 -5 -7 3 -7 -16 -34 -42 -60 -43 -42 -64 -53 -193 -98 -80 -28
-198 -78 -264 -111 -65 -33 -120 -58 -122 -56 -3 2 21 20 51 41 30 20 55 33
55 29 0 -5 4 -2 9 5 9 15 149 77 266 118 114 40 144 61 291 206 72 70 133 126
137 123 4 -3 5 -2 2 2 -8 10 66 83 77 77 5 -3 7 0 6 8 -2 7 5 13 14 13 9 0 20
4 25 9 5 5 2 6 -7 2 -20 -10 74 78 208 197 23 20 39 37 36 37 -4 0 -1 7 6 15
7 8 15 13 19 11 3 -2 17 2 31 10 14 7 21 13 17 14 -10 0 24 35 34 35 4 0 17
13 29 28 12 15 25 25 28 22 4 -3 -20 -32 -54 -63z m-365 -28 c-23 -25 -39 -31
-39 -15 0 5 9 11 20 14 11 3 20 13 20 22 0 9 5 13 11 10 7 -5 2 -16 -12 -31z
m-69 -69 c-13 -14 -30 -23 -37 -21 -6 3 -10 0 -7 -7 2 -7 -19 -33 -47 -57 -28
-25 -59 -53 -68 -63 -33 -37 -264 -258 -414 -395 -85 -78 -111 -82 -31 -4 223
216 448 427 455 425 5 -2 6 4 3 12 -4 9 1 18 11 21 9 4 41 31 70 61 34 35 58
52 66 47 9 -5 10 -2 5 12 -6 15 -5 16 5 7 10 -10 8 -18 -11 -38z m-1930 -97
c0 -13 -18 -9 -27 5 -4 6 -8 18 -9 25 -2 8 -6 17 -10 20 -4 4 -5 0 -1 -10 6
-18 -1 -30 -14 -22 -5 3 -4 15 2 27 12 21 12 21 35 -9 13 -16 24 -32 24 -36z
m5097 30 c-3 -8 -6 -5 -6 6 -1 11 2 17 5 13 3 -3 4 -12 1 -19z m59 0 c12 -14
13 -18 3 -10 -9 6 -18 10 -21 7 -2 -3 -5 2 -5 10 0 19 0 19 23 -7z m-5236 -23
c0 -12 -19 -12 -23 0 -4 9 -1 12 9 8 7 -3 14 -7 14 -8z m5237 -32 c0 -7 -4
-10 -9 -7 -4 3 -8 0 -8 -5 0 -6 5 -11 10 -11 13 0 13 -27 1 -35 -5 -3 -13 0
-17 6 -4 8 -3 9 4 5 7 -4 12 -3 12 2 0 15 -13 22 -24 12 -7 -5 -17 -5 -26 0
-10 6 -11 10 -3 10 7 0 10 7 7 15 -6 14 -8 13 -21 -2 -13 -17 -13 -17 -4 2 7
15 19 21 44 21 20 0 34 -5 34 -13z m49 -33 c0 -12 -4 -16 -9 -11 -5 5 -6 14
-3 20 10 15 12 14 12 -9z m-2006 -472 c19 -6 38 -13 42 -15 10 -5 -20 -65 -30
-61 -78 35 -101 40 -129 26 -21 -10 -28 -20 -28 -43 0 -31 16 -41 112 -65 52
-13 99 -51 106 -86 8 -43 -11 -91 -46 -116 -45 -32 -144 -32 -205 0 l-42 23
23 25 24 26 39 -21 c46 -25 75 -26 114 -6 21 11 30 23 30 40 0 28 -26 44 -112
69 -81 23 -113 53 -113 105 0 33 7 47 31 72 47 47 94 54 184 27z m1053 7 c94
-16 162 -133 136 -237 -16 -68 -76 -130 -142 -146 -157 -40 -297 128 -227 273
10 22 25 47 32 56 31 37 110 71 148 64 8 -2 32 -6 53 -10z m-1843 -25 l0 -30
-115 0 -115 0 0 -55 0 -55 80 0 80 0 0 -30 0 -30 -80 0 -80 0 0 -80 0 -80 -30
0 -29 0 -3 190 -3 189 35 4 c19 2 86 4 148 5 l112 2 0 -30z m307 -97 c60 -125
113 -247 113 -258 0 -3 -14 -5 -31 -5 -25 0 -32 6 -45 35 l-14 35 -101 0 -100
0 -15 -35 c-12 -31 -19 -35 -49 -35 l-35 0 14 33 c117 272 161 357 185 357 13
0 33 -32 78 -127z m813 47 l0 -80 110 0 110 0 0 75 c0 72 1 75 25 81 14 4 27
5 29 3 2 -2 6 -91 8 -196 l5 -193 -33 0 -34 0 0 85 0 85 -110 0 -109 0 -3 -87
c-3 -86 -3 -88 -28 -88 l-25 0 -3 198 -2 197 30 0 30 0 0 -80z m1193 -49 l97
-96 0 113 0 113 33 -3 32 -3 3 -182 c1 -101 -1 -183 -5 -183 -5 0 -58 50 -118
110 -60 61 -113 110 -117 110 -5 0 -8 -54 -8 -120 l0 -120 -30 0 -30 0 0 197
0 196 23 -19 c12 -10 66 -61 120 -113z m-3097 -563 c82 -38 85 -41 79 -66 -4
-15 -8 -28 -9 -30 -2 -1 -38 14 -80 33 -43 19 -81 33 -86 30 -4 -3 -13 -19
-19 -35 -10 -30 -10 -31 44 -55 30 -13 55 -26 55 -29 0 -2 -4 -16 -10 -30 l-9
-25 -53 29 c-29 16 -58 30 -63 30 -6 0 -21 -27 -34 -61 -22 -57 -25 -60 -50
-54 -14 4 -27 8 -29 9 -1 2 30 71 69 155 61 128 75 150 91 145 10 -3 57 -24
104 -46z m2890 -115 c76 -156 74 -168 -26 -127 -36 15 -93 37 -127 50 l-61 23
33 -72 c49 -109 50 -114 19 -121 -14 -4 -28 -6 -29 -4 -1 2 -32 66 -69 143
-68 146 -72 170 -18 148 98 -40 232 -90 232 -87 0 3 -18 41 -41 85 -22 45 -39
82 -37 84 19 15 45 22 52 15 5 -5 38 -67 72 -137z m-2417 -40 c11 -22 83 -345
77 -350 -2 -2 -15 -1 -29 2 -19 5 -28 16 -34 43 -8 35 -10 36 -88 55 l-79 19
-26 -30 c-20 -24 -31 -29 -52 -25 -16 3 -28 8 -28 10 0 5 109 154 176 242 41
52 67 63 83 34z m1783 -49 c61 -32 106 -130 88 -194 -15 -53 -52 -99 -96 -120
-49 -24 -92 -25 -142 -5 -74 32 -114 90 -114 166 0 134 141 216 264 153z
m-1303 -38 c42 -22 54 -41 36 -56 -11 -9 -24 -8 -60 6 -36 13 -51 15 -70 6
-45 -21 -32 -48 39 -82 102 -48 131 -105 85 -163 -31 -41 -86 -53 -145 -33
-27 9 -60 25 -74 35 -24 19 -24 20 -7 39 18 20 19 20 73 -5 59 -27 98 -25 106
4 8 31 -3 43 -73 78 -37 19 -73 44 -79 54 -18 35 -11 71 19 102 24 24 38 29
76 29 25 0 58 -6 74 -14z m391 -91 l0 -65 110 0 110 0 0 -90 c0 -49 0 -92 0
-95 0 -3 -3 -5 -7 -5 -5 0 -10 28 -13 62 l-5 63 -97 3 -98 3 0 -76 0 -76 -27
3 -28 3 -3 168 -2 167 30 0 30 0 0 -65z m341 38 c0 -16 6 -88 12 -161 7 -73
11 -135 8 -138 -2 -2 -17 -4 -31 -4 l-27 0 -7 113 c-4 61 -9 136 -12 165 l-6
52 31 0 c27 0 31 -4 32 -27z"/>
<path d="M7431 7761 c-6 -10 -7 -21 -4 -25 13 -13 21 -5 19 19 -1 30 -2 30
-15 6z"/>
<path d="M7460 7776 c0 -2 7 -7 16 -10 8 -3 12 -2 9 4 -6 10 -25 14 -25 6z"/>
<path d="M7460 7710 c0 -5 7 -7 15 -3 10 3 15 1 13 -7 -2 -7 3 -15 10 -17 11
-4 12 -1 3 16 -12 21 -41 29 -41 11z"/>
<path d="M7515 7710 c-3 -6 1 -7 9 -4 18 7 21 14 7 14 -6 0 -13 -4 -16 -10z"/>
<path d="M2754 7592 c4 -3 14 -7 22 -8 9 -1 13 0 10 4 -4 3 -14 7 -22 8 -9 1
-13 0 -10 -4z"/>
<path d="M2730 7556 c0 -2 8 -10 18 -17 15 -13 16 -12 3 4 -13 16 -21 21 -21
13z"/>
<path d="M5735 7992 c-41 -63 -92 -87 -177 -86 -48 0 -73 5 -86 17 -30 27 -34
20 -12 -23 11 -22 38 -52 60 -66 34 -23 47 -26 88 -20 90 12 171 97 172 178 0
20 -3 39 -7 41 -5 2 -21 -16 -38 -41z"/>
<path d="M4116 7301 c-3 -5 2 -15 12 -22 15 -12 16 -12 5 2 -7 9 -10 19 -6 22
3 4 4 7 0 7 -3 0 -8 -4 -11 -9z"/>
<path d="M4030 7171 c-7 -15 -7 -22 2 -27 7 -4 10 -4 6 1 -4 4 -3 16 3 26 5
11 7 19 5 19 -3 0 -10 -9 -16 -19z"/>
<path d="M4000 7121 c-7 -14 -7 -22 0 -26 6 -4 10 -3 9 2 -4 21 2 34 13 27 7
-4 8 -3 4 4 -10 16 -14 15 -26 -7z"/>
<path d="M4040 7106 c0 -2 7 -7 16 -10 8 -3 12 -2 9 4 -6 10 -25 14 -25 6z"/>
<path d="M3959 7049 c-9 -17 -8 -24 7 -38 11 -9 13 -9 6 -1 -13 16 -16 34 -4
26 4 -2 8 4 8 15 0 24 -3 24 -17 -2z"/>
<path d="M4016 7013 c-6 -14 -5 -15 5 -6 7 7 10 15 7 18 -3 3 -9 -2 -12 -12z"/>
<path d="M3583 5825 c-3 -9 -3 -18 -1 -21 3 -3 8 4 11 16 6 23 -1 27 -10 5z"/>
<path d="M3566 5715 c-9 -26 -7 -32 5 -12 6 10 9 21 6 23 -2 3 -7 -2 -11 -11z"/>
<path d="M3605 5690 c-3 -6 1 -7 9 -4 18 7 21 14 7 14 -6 0 -13 -4 -16 -10z"/>
<path d="M3575 5441 c-3 -5 -1 -12 5 -16 5 -3 10 1 10 9 0 18 -6 21 -15 7z"/>
<path d="M2920 5370 c-6 -11 -9 -20 -8 -20 2 0 11 9 21 20 9 11 13 20 7 20 -5
0 -14 -9 -20 -20z"/>
<path d="M2885 5320 c-10 -11 -16 -22 -14 -24 2 -2 12 7 22 20 22 29 17 32 -8
4z"/>
<path d="M2797 5203 c-8 -12 12 -22 31 -16 6 3 12 9 12 15 0 7 -5 6 -14 -1
-11 -9 -15 -9 -18 1 -3 8 -6 9 -11 1z"/>
<path d="M2839 5173 c-13 -16 -12 -17 4 -4 16 13 21 21 13 21 -2 0 -10 -8 -17
-17z"/>
<path d="M2752 5137 c-8 -9 -8 -17 0 -27 8 -13 9 -12 5 1 -3 9 0 22 6 28 6 6
8 11 5 11 -3 0 -10 -6 -16 -13z"/>
<path d="M2796 5118 c3 -5 10 -6 15 -3 13 9 11 12 -6 12 -8 0 -12 -4 -9 -9z"/>
<path d="M2775 5100 c5 -9 -15 -15 -37 -11 -5 0 -8 -4 -8 -10 0 -6 7 -8 16 -5
9 3 22 6 30 6 8 0 14 7 14 15 0 8 -5 15 -11 15 -5 0 -7 -4 -4 -10z"/>
<path d="M2280 3576 c0 -2 7 -7 16 -10 8 -3 12 -2 9 4 -6 10 -25 14 -25 6z"/>
<path d="M5259 7053 c-13 -16 -12 -17 4 -4 9 7 17 15 17 17 0 8 -8 3 -21 -13z"/>
<path d="M5159 6973 c-13 -16 -12 -17 4 -4 16 13 21 21 13 21 -2 0 -10 -8 -17
-17z"/>
<path d="M5179 6963 c-12 -16 -12 -17 1 -7 8 6 22 14 30 17 13 5 12 6 -1 6 -9
1 -23 -7 -30 -16z"/>
<path d="M5089 6923 c-13 -16 -12 -17 4 -4 9 7 17 15 17 17 0 8 -8 3 -21 -13z"/>
<path d="M5145 6929 c-4 -6 -16 -14 -28 -18 -13 -5 -16 -10 -9 -15 6 -3 20 3
31 15 11 12 24 18 32 14 8 -5 10 -4 5 3 -9 15 -23 15 -31 1z"/>
<path d="M5036 6855 c-15 -11 -15 -13 -1 -19 9 -3 13 -10 10 -16 -10 -16 0
-12 25 10 13 11 18 20 11 20 -7 0 -10 4 -7 8 8 13 -19 10 -38 -3z m28 -16 c-3
-5 -10 -7 -15 -3 -5 3 -7 10 -3 15 3 5 10 7 15 3 5 -3 7 -10 3 -15z"/>
<path d="M4885 6779 c-71 -48 -76 -52 -50 -43 18 7 18 6 6 -9 -7 -9 -11 -17
-7 -17 3 0 1 -11 -4 -25 -9 -23 -8 -24 9 -13 11 6 17 18 14 25 -5 13 8 17 36
13 9 -1 12 5 8 19 -3 12 -1 21 4 21 5 0 9 -4 9 -10 0 -5 5 -10 11 -10 6 0 9 6
6 13 -2 6 3 18 12 25 14 11 13 12 -6 3 -33 -16 -48 -14 -33 4 7 8 17 12 24 8
6 -3 7 -2 3 2 -4 5 3 15 15 22 13 7 19 12 13 12 -5 0 -37 -18 -70 -40z m-3
-26 c-10 -4 -10 -8 0 -21 7 -10 9 -14 4 -10 -5 4 -18 3 -30 -3 -20 -10 -20
-10 -2 5 14 12 16 16 5 16 -12 0 -12 2 1 10 8 5 20 9 25 9 6 0 4 -3 -3 -6z"/>
<path d="M4790 6685 c-18 -10 -20 -14 -8 -15 9 0 18 -3 21 -7 2 -5 2 -3 1 4
-2 6 2 14 9 16 7 2 10 7 7 10 -3 3 -16 -1 -30 -8z"/>
<path d="M4694 6618 c-3 -4 -3 -12 1 -17 3 -5 0 -13 -6 -17 -7 -4 -9 -3 -5 4
3 6 2 13 -4 17 -5 3 -10 3 -11 -2 0 -4 -2 -18 -5 -30 -2 -13 1 -23 7 -23 5 0
8 4 5 9 -4 5 7 15 23 22 16 7 29 20 28 29 -1 17 -24 23 -33 8z"/>
<path d="M7825 6950 c-3 -5 -1 -10 4 -10 6 0 11 5 11 10 0 6 -2 10 -4 10 -3 0
-8 -4 -11 -10z"/>
<path d="M7909 6813 c-13 -16 -12 -17 4 -4 9 7 17 15 17 17 0 8 -8 3 -21 -13z"/>
<path d="M5574 6662 c2 -8 14 -17 27 -19 16 -2 20 0 11 6 -8 4 -12 12 -10 16
1 5 -4 9 -13 11 -10 1 -16 -4 -15 -14z"/>
<path d="M5646 6661 c6 -6 21 -13 34 -16 12 -2 21 -3 19 -1 -2 3 -8 5 -14 6
-5 1 -19 7 -30 12 -15 8 -17 8 -9 -1z"/>
<path d="M7390 6555 c0 -2 6 -8 13 -14 10 -8 14 -7 14 2 0 8 -6 14 -14 14 -7
0 -13 -1 -13 -2z"/>
<path d="M3306 6606 c-8 -20 -32 -46 -55 -62 -35 -23 -48 -26 -96 -22 -34 3
-62 12 -75 23 -38 34 -32 7 7 -35 32 -34 47 -43 84 -47 58 -7 100 14 134 66
29 42 45 111 26 111 -6 0 -17 -15 -25 -34z"/>
<path d="M6642 6202 c-155 -152 -283 -281 -282 -287 0 -5 129 118 287 275 158
157 289 286 292 288 2 1 0 2 -5 2 -5 0 -136 -125 -292 -278z"/>
<path d="M6295 5854 c-15 -14 -24 -28 -21 -31 3 -4 7 -4 9 -2 1 2 13 16 26 32
31 34 23 35 -14 1z"/>
<path d="M6377 5203 c-10 -9 -9 -23 1 -23 5 0 9 7 9 15 0 17 -1 18 -10 8z"/>
<path d="M6375 5081 c-3 -5 -1 -12 5 -16 5 -3 10 1 10 9 0 18 -6 21 -15 7z"/>
<path d="M6679 5003 c-13 -16 -12 -17 4 -4 9 7 17 15 17 17 0 8 -8 3 -21 -13z"/>
<path d="M6663 4965 c0 -8 4 -12 9 -9 5 3 6 10 3 15 -9 13 -12 11 -12 -6z"/>
<path d="M8183 5351 c3 -12 -1 -22 -11 -26 -8 -3 -12 -8 -9 -11 3 -3 12 -2 19
2 7 5 17 9 23 9 5 0 11 9 12 20 3 19 3 19 -5 1 -6 -14 -11 -16 -16 -8 -4 7 -4
17 -1 22 3 6 1 10 -6 10 -6 0 -9 -8 -6 -19z"/>
<path d="M5015 5440 c-4 -13 0 -31 10 -46 13 -20 19 -23 31 -13 16 13 19 23 4
14 -5 -3 -10 -1 -10 5 0 6 -4 9 -9 5 -5 -3 -13 0 -17 6 -5 9 1 10 20 5 18 -4
25 -3 21 4 -3 5 -13 10 -21 10 -17 0 -19 16 -1 23 7 3 6 6 -5 6 -9 1 -20 -8
-23 -19z"/>
<path d="M4915 5217 c-4 -15 -5 -31 -1 -34 3 -4 6 2 6 13 0 14 3 15 9 6 6 -10
10 -10 21 3 11 13 10 15 -3 9 -10 -3 -17 1 -20 13 -3 14 -6 12 -12 -10z"/>
<path d="M4973 5205 c0 -8 4 -12 9 -9 5 3 6 10 3 15 -9 13 -12 11 -12 -6z"/>
<path d="M4885 5130 c-3 -6 1 -7 9 -4 18 7 21 14 7 14 -6 0 -13 -4 -16 -10z"/>
<path d="M3980 4806 c0 -8 4 -17 9 -20 5 -4 7 3 4 14 -6 23 -13 26 -13 6z"/>
<path d="M3805 4330 c3 -5 8 -10 11 -10 2 0 4 5 4 10 0 6 -5 10 -11 10 -5 0
-7 -4 -4 -10z"/>
<path d="M3849 4315 c-1 -3 -2 -11 -3 -17 -1 -7 -9 -12 -19 -10 -9 2 -17 -2
-17 -7 0 -5 10 -8 23 -6 21 4 21 4 3 -10 -17 -13 -17 -15 -3 -15 20 0 46 42
28 48 -6 2 -9 8 -5 13 3 5 3 9 0 9 -3 0 -7 -2 -7 -5z"/>
<path d="M3873 4274 c3 -4 -2 -14 -13 -23 -14 -12 -16 -21 -9 -39 5 -13 14
-20 19 -17 8 5 7 11 -1 21 -9 11 -8 18 5 32 19 22 20 32 4 32 -6 0 -9 -3 -5
-6z"/>
<path d="M3870 4229 c0 -5 5 -7 10 -4 6 3 10 8 10 11 0 2 -4 4 -10 4 -5 0 -10
-5 -10 -11z"/>
<path d="M3966 4211 c-3 -5 1 -11 9 -14 9 -4 12 -1 8 9 -6 16 -10 17 -17 5z"/>
<path d="M3996 4207 c3 -10 9 -15 12 -12 3 3 0 11 -7 18 -10 9 -11 8 -5 -6z"/>
<path d="M1715 5091 c3 -5 0 -11 -7 -13 -7 -3 -8 -7 -3 -10 6 -3 15 0 22 7 10
10 9 14 -3 19 -8 3 -13 2 -9 -3z"/>
<path d="M1735 5060 c-3 -5 -2 -10 4 -10 5 0 13 5 16 10 3 6 2 10 -4 10 -5 0
-13 -4 -16 -10z"/>
<path d="M8640 5100 c0 -5 6 -10 14 -10 8 0 18 5 21 10 3 6 -3 10 -14 10 -12
0 -21 -4 -21 -10z"/>
<path d="M2989 5123 c-13 -16 -12 -17 4 -4 9 7 17 15 17 17 0 8 -8 3 -21 -13z"/>
<path d="M2920 5035 c6 -8 9 -19 5 -24 -3 -6 0 -8 9 -5 8 3 17 12 20 19 3 10
0 12 -11 8 -11 -4 -14 -2 -9 5 4 7 1 12 -10 12 -13 0 -14 -3 -4 -15z"/>
<path d="M5265 4441 c-3 -5 -2 -12 3 -15 5 -3 9 1 9 9 0 17 -3 19 -12 6z"/>
<path d="M5865 4740 c-3 -5 -2 -10 4 -10 5 0 13 5 16 10 3 6 2 10 -4 10 -5 0
-13 -4 -16 -10z"/>
<path d="M5856 4705 c-3 -8 -1 -15 3 -15 5 0 11 7 15 15 3 8 1 15 -3 15 -5 0
-11 -7 -15 -15z"/>
<path d="M5571 4429 c-7 -12 -19 -18 -27 -15 -8 3 -14 1 -14 -4 0 -6 5 -10 11
-10 16 0 61 38 51 44 -4 2 -14 -4 -21 -15z"/>
<path d="M5056 4331 c-3 -5 2 -15 12 -22 15 -12 16 -12 5 2 -7 9 -10 19 -6 22
3 4 4 7 0 7 -3 0 -8 -4 -11 -9z"/>
<path d="M2917 4040 c-6 -23 -42 -67 -79 -96 -42 -33 -135 -35 -180 -3 l-30
22 12 -24 c38 -73 109 -104 184 -79 71 23 133 128 109 183 -10 21 -10 21 -16
-3z"/>
<path d="M8004 3992 c3 -5 0 -13 -6 -15 -10 -4 -9 -8 2 -16 13 -9 13 -11 -2
-11 -9 0 -19 -8 -23 -19 -3 -10 -22 -35 -42 -56 -22 -22 -28 -33 -15 -26 19
10 39 32 70 77 7 11 6 5 -2 -12 -19 -40 -72 -85 -91 -78 -8 4 -15 1 -15 -5 0
-16 -76 -14 -110 4 -16 8 -36 25 -44 37 -23 33 -20 12 5 -32 24 -42 82 -80
123 -80 49 0 102 30 135 75 26 36 31 53 31 99 0 31 -5 58 -12 62 -6 4 -8 3 -4
-4z"/>
<path d="M7205 3809 c-3 -4 2 -6 10 -5 21 3 28 13 10 13 -9 0 -18 -4 -20 -8z"/>
<path d="M7259 3753 c-12 -16 -12 -17 2 -6 9 7 20 9 24 5 5 -4 5 -1 1 6 -9 16
-11 15 -27 -5z"/>
<path d="M7289 3723 c-11 -14 -11 -15 -1 -9 10 6 13 3 10 -10 -2 -11 -9 -18
-14 -17 -6 1 -11 -4 -11 -12 0 -10 5 -11 19 -4 12 7 18 19 16 39 -3 35 -2 35
-19 13z"/>
<path d="M7230 3676 c0 -2 7 -9 15 -16 13 -11 14 -10 9 4 -5 14 -24 23 -24 12z"/>
<path d="M4145 3710 c-3 -6 1 -7 9 -4 18 7 21 14 7 14 -6 0 -13 -4 -16 -10z"/>
<path d="M7364 3578 c0 -10 1 -18 3 -18 1 0 7 8 12 18 7 13 6 19 -2 19 -7 0
-13 -9 -13 -19z"/>
<path d="M6383 3020 c-114 -69 -65 -250 67 -250 106 0 168 121 107 211 -41 60
-113 77 -174 39z"/>
<path d="M4852 2923 l-30 -68 60 -3 c33 -2 62 -1 65 1 6 6 -49 137 -57 137 -4
0 -21 -30 -38 -67z"/>
<path d="M4279 2137 c-19 -27 -34 -54 -34 -60 0 -12 81 -34 90 -25 3 3 -1 34
-8 69 l-13 64 -35 -48z"/>
<path d="M5983 2140 c-42 -25 -56 -54 -50 -102 6 -46 29 -75 75 -95 50 -21
114 2 138 49 25 49 18 96 -20 134 -40 40 -92 46 -143 14z"/>
</g>
</svg>
